<svg clip-rule="evenodd" fill-rule="evenodd" height="512" image-rendering="optimizeQuality" shape-rendering="geometricPrecision" text-rendering="geometricPrecision" viewBox="0 0 2.833 2.833" width="512" xmlns="http://www.w3.org/2000/svg"><linearGradient id="a" gradientUnits="userSpaceOnUse" x1="0" x2="2.833" y1="1.417" y2="1.417"><stop offset="0" stop-color="#ec297b"/><stop offset=".059" stop-color="#db2776"/><stop offset=".169" stop-color="#c0236d"/><stop offset=".278" stop-color="#ad2168"/><stop offset=".4" stop-color="#a21f64"/><stop offset=".522" stop-color="#9e1f63"/><stop offset=".961" stop-color="#90278e"/><stop offset="1" stop-color="#90278e"/></linearGradient><circle cx="1.417" cy="1.417" fill="url(#a)" r="1.417"/><g fill="#fff"><path d="M2.25 1.8h-.572a.02.02 0 0 1-.02-.02v-.2a.02.02 0 0 1 .02-.02h.572a.02.02 0 0 1 .02.02v.2a.02.02 0 0 1-.02.02zm-.552-.04h.532V1.6h-.532z"/><path d="M1.942 1.738H1.74a.02.02 0 0 1-.02-.02v-.076a.02.02 0 0 1 .02-.02h.202a.02.02 0 0 1 .02.02v.076a.02.02 0 0 1-.02.02zm-.182-.04h.162v-.036H1.76zM2.039 1.732c-.068 0-.068-.103 0-.103s.068.103 0 .103zm0-.063c-.015 0-.015.023 0 .023s.015-.023 0-.023z"/><path d="M2.156 1.732c-.068 0-.068-.103 0-.103s.068.103 0 .103zm0-.063c-.015 0-.015.023 0 .023s.015-.023 0-.023zM2.25 1.537h-.572a.02.02 0 0 1-.02-.02v-.2a.02.02 0 0 1 .02-.02h.572a.02.02 0 0 1 .02.02v.2a.02.02 0 0 1-.02.02zm-.552-.04h.532v-.16h-.532z"/><path d="M1.942 1.475H1.74a.02.02 0 0 1-.02-.02v-.076a.02.02 0 0 1 .02-.02h.202a.02.02 0 0 1 .02.02v.076a.02.02 0 0 1-.02.02zm-.182-.04h.162v-.036H1.76zM2.039 1.468c-.068 0-.068-.103 0-.103s.068.103 0 .103zm0-.063c-.015 0-.015.023 0 .023s.015-.023 0-.023z"/><path d="M2.156 1.468c-.068 0-.068-.103 0-.103s.068.103 0 .103zm0-.063c-.015 0-.015.023 0 .023s.015-.023 0-.023zM2.25 1.274h-.572a.02.02 0 0 1-.02-.02v-.201a.02.02 0 0 1 .02-.02h.572a.02.02 0 0 1 .02.02v.2a.02.02 0 0 1-.02.02zm-.552-.04h.532v-.161h-.532z"/><path d="M1.942 1.211H1.74a.02.02 0 0 1-.02-.02v-.076a.02.02 0 0 1 .02-.02h.202a.02.02 0 0 1 .02.02v.076a.02.02 0 0 1-.02.02zm-.182-.04h.162v-.036H1.76zM2.039 1.205c-.068 0-.068-.103 0-.103s.068.103 0 .103zm0-.063c-.015 0-.015.023 0 .023s.015-.023 0-.023z"/><path d="M2.156 1.205c-.068 0-.068-.103 0-.103s.068.103 0 .103zm0-.063c-.015 0-.015.023 0 .023s.015-.023 0-.023zM2.18 1.6h-.433c-.029 0-.02-.043-.02-.083a.02.02 0 0 1 .02-.02h.434c.028 0 .02.043.02.082a.02.02 0 0 1-.02.02zm-.413-.04h.394v-.023h-.394v.022zM2.18 1.336h-.433c-.029 0-.02-.042-.02-.082a.02.02 0 0 1 .02-.02h.434c.028 0 .02.042.02.082a.02.02 0 0 1-.02.02zm-.413-.04h.394v-.022h-.394v.022zM1.008 1.946c-.118 0-.21-.218-.21-.497 0-.347.143-.525.169-.461a.044.044 0 0 0 .082 0c.025-.064.17.114.17.46 0 .28-.093.498-.211.498zm-.064-.92c-.063.073-.107.24-.107.423 0 .273.089.457.17.457.083 0 .171-.184.171-.457 0-.183-.043-.35-.107-.422a.084.084 0 0 1-.127 0z"/><path d="M.665 1.753c-.03 0-.072-.029-.088-.055-.105-.183.403-.56.717-.56.171 0 .206.122.09.271-.126.159-.386.31-.587.343a.02.02 0 0 1-.023-.018c-.006-.053-.084-.052-.089.001a.02.02 0 0 1-.02.018zm.064-.098c.037 0 .068.022.08.054.405-.08.81-.53.485-.53-.198 0-.5.169-.63.334-.063.08-.091.165-.013.195a.085.085 0 0 1 .078-.053z"/><path d="M1.225 1.753a1.074 1.074 0 0 1-.592-.344c-.207-.262.071-.379.48-.142a.963.963 0 0 1 .27.222c.166.21-.017.278-.042.26-.015-.01-.006-.054-.052-.054s-.039.043-.052.054a.02.02 0 0 1-.012.004zM.72 1.179c-.326 0 .083.452.488.53a.084.084 0 0 1 .158-.002c.076-.03.047-.115-.015-.194-.13-.165-.433-.334-.63-.334zM1.008 1.056c-.111 0-.111-.169 0-.169.11 0 .11.169 0 .169zm0-.129c-.058 0-.058.089 0 .089s.058-.089 0-.089z"/><path d="M1.289 1.823c-.111 0-.111-.168 0-.168.11 0 .11.168 0 .168zm0-.128c-.059 0-.059.088 0 .088.058 0 .058-.088 0-.088zM.73 1.823c-.111 0-.111-.168 0-.168s.11.168 0 .168zm0-.128c-.059 0-.059.088 0 .088.058 0 .058-.088 0-.088zM1.968 2.03h-.404c-.026 0-.026-.04 0-.04h.384v-.21c0-.026.04-.026.04 0v.23a.02.02 0 0 1-.02.02zm-.557 0h-.403a.02.02 0 0 1-.02-.02v-.084c0-.026.04-.026.04 0v.064h.383c.026 0 .026.04 0 .04zm.557-.957a.02.02 0 0 1-.02-.02v-.21h-.384c-.026 0-.026-.04 0-.04h.404a.02.02 0 0 1 .02.02v.23a.02.02 0 0 1-.02.02zm-.96-.146a.02.02 0 0 1-.02-.02V.824a.02.02 0 0 1 .02-.02h.403c.026 0 .026.04 0 .04h-.383c0 .04.008.083-.02.083zM1.008 1.561a.115.115 0 1 1 0-.23.115.115 0 0 1 0 .23zm0-.19c-.1 0-.1.15 0 .15.099 0 .099-.15 0-.15z"/><path d="M1.488.92a.097.097 0 1 1 0-.193.097.097 0 0 1 0 .193zm0-.153c-.075 0-.075.113 0 .113.074 0 .074-.113 0-.113zM1.488 2.106a.097.097 0 1 1 0-.193.097.097 0 0 1 0 .193zm0-.153c-.075 0-.075.113 0 .113s.074-.113 0-.113z"/></g></svg>