<svg id="Layer_2" data-name="Layer 2" xmlns="http://www.w3.org/2000/svg" viewBox="0 0 224 224"><defs><style>.cls-1{fill:#fff}</style></defs><g id="Layer_1-2" data-name="Layer 1"><rect width="224" height="224" rx="37.59" ry="37.59" style="fill:#0274b3"/><path class="cls-1" d="M38.64 179.36V66.96h26.89v112.4H38.64ZM51.78 57.25c-4.2 0-8.07-1.57-10.91-4.41-2.95-2.95-4.56-7-4.55-11.4-.01-4.3 1.6-8.31 4.55-11.26 2.92-2.93 6.92-4.54 11.26-4.54 9.05 0 15.66 6.64 15.73 15.79.01 4.38-1.58 8.38-4.48 11.28-2.97 2.97-6.98 4.54-11.6 4.54ZM159.06 179.36v-64.19c0-12.32-3.49-27.01-20.13-27.01-11.34 0-19.11 8.39-21.77 16.71-.69 2.02-1.12 4.97-1.12 7.59v66.91H89.15v-80.2c0-11.76-.43-20.73-.86-27.96l-.25-4.23h24.78l.65 10.64c6.88-7.05 17.59-13.02 31.68-13.02 18.82 0 40.79 12.7 40.79 48.49v66.28h-26.89Z"/></g></svg>