<svg data-name="Layer 2" xmlns="http://www.w3.org/2000/svg" viewBox="0 0 224 224"><g data-name="Layer 1"><rect width="224" height="224" rx="37.59" ry="37.59" style="fill:#2eaaf4"/><path d="M40.89 98.31c.03-1.26-.27-2.49-.23-3.76.03-.93.27-1.07 1.05-.66 2.47 1.3 5.08 2.23 7.8 2.79 1.59.33 3.22.48 5 .74-.33-1.12-1.2-1.39-1.78-1.87-4.12-3.47-7.33-7.56-9.42-12.57-2.01-4.82-2.71-9.83-2.34-14.96.31-4.37 1.68-8.5 3.72-12.4.37-.71.62-.73 1.19-.07 2.3 2.68 4.6 5.35 7.24 7.73 2.19 1.98 4.35 3.99 6.67 5.79 2.42 1.87 4.93 3.63 7.51 5.28a82.6 82.6 0 0 0 8.21 4.62c6.31 3.08 12.88 5.45 19.71 6.99 3.09.7 6.21 1.32 9.39 1.58 1.77.14 3.53.48 5.32.46.63 0 .91-.16.76-.84-.68-3.15-.8-6.3-.5-9.53.38-4.09 1.53-7.91 3.39-11.5 2.88-5.54 7.08-9.84 12.49-13 3.68-2.14 7.65-3.39 11.81-3.92 5.92-.75 11.64.17 17.12 2.64 3.12 1.41 6.18 3.07 8.38 5.58 1.94 2.21 3.67 1.15 5.52.71 4.95-1.19 9.59-3.22 14.12-5.53.65-.33 1.16-1.02 2.1-.95-1.01 3-2.4 5.72-4.17 8.28-1.87 2.71-4.28 4.88-6.68 7.07-.41.37-.97.57-1.45.86-.2.12-.48.3-.33.56.1.16.43.28.63.26.8-.08 1.6-.16 2.38-.36 2.2-.56 4.4-1.16 6.59-1.77 2.37-.67 4.61-1.6 6.92-2.37.06-.02.15.04.29.07-1.39 1.95-2.77 3.88-4.32 5.68-1.81 2.1-3.76 4.04-5.76 5.93-1.5 1.41-3.05 2.79-4.81 3.91-.62.4-.87 1.08-.76 1.82.42 2.82.05 5.65-.07 8.46-.1 2.48-.41 4.98-.85 7.45-.26 1.5-.41 3.02-.77 4.51-1.24 6.57-3.35 12.88-5.97 19.01-2.99 6.99-6.87 13.49-11.42 19.56-3.3 4.4-7.09 8.4-11.14 12.12a80.867 80.867 0 0 1-15.14 10.95 86.976 86.976 0 0 1-16.67 7.2 91.21 91.21 0 0 1-13.95 3.19c-4.34.65-8.68 1-13.06.97-2.54-.02-5.1.15-7.63-.05-3.25-.25-6.5-.68-9.71-1.23-4.59-.78-9.11-1.97-13.5-3.52-6.57-2.31-12.92-5.13-19.08-9.28 17.32 1.54 32.71-2.67 46.5-13.12-2.67-.42-5.2-.55-7.65-1.3-4.12-1.25-7.89-3.11-11.25-5.83-3.93-3.19-7.04-7.01-9.15-11.62-.42-.91-.71-1.87-1.07-2.81-.18-.48-.02-.76.49-.63 2.23.55 4.51.53 6.76.42 2.11-.1 4.22-.44 6.45-.99-1.07-.65-2.15-.67-3.13-.99-4.71-1.56-8.83-4.09-12.38-7.55-4.5-4.37-7.38-9.65-8.85-15.73-.2-.82-.36-1.65-.53-2.47Z" style="fill:#fefefe"/></g></svg>